<?xml version="1.0" encoding="UTF-8" standalone="no"?>
<svg
   xmlns:dc="http://purl.org/dc/elements/1.1/"
   xmlns:cc="http://creativecommons.org/ns#"
   xmlns:rdf="http://www.w3.org/1999/02/22-rdf-syntax-ns#"
   xmlns:svg="http://www.w3.org/2000/svg"
   xmlns="http://www.w3.org/2000/svg"
   xmlns:sodipodi="http://sodipodi.sourceforge.net/DTD/sodipodi-0.dtd"
   xmlns:inkscape="http://www.inkscape.org/namespaces/inkscape"
   width="361"
   height="563"
   id="svg3303"
   version="1.1"
   inkscape:version="0.48.4 r9939"
   sodipodi:docname="thesis.svg">
  <metadata
     id="metadata3581">
    <rdf:RDF>
      <cc:Work
         rdf:about="">
        <dc:format>image/svg+xml</dc:format>
        <dc:type
           rdf:resource="http://purl.org/dc/dcmitype/StillImage" />
        <dc:title></dc:title>
      </cc:Work>
    </rdf:RDF>
  </metadata>
  <defs
     id="defs3579" />
  <sodipodi:namedview
     pagecolor="#ffffff"
     bordercolor="#666666"
     borderopacity="1"
     objecttolerance="10"
     gridtolerance="10"
     guidetolerance="10"
     inkscape:pageopacity="0"
     inkscape:pageshadow="2"
     inkscape:window-width="826"
     inkscape:window-height="1040"
     id="namedview3577"
     showgrid="false"
     fit-margin-top="5"
     fit-margin-left="5"
     fit-margin-right="5"
     fit-margin-bottom="5"
     inkscape:zoom="1.4"
     inkscape:cx="149"
     inkscape:cy="281"
     inkscape:window-x="0"
     inkscape:window-y="0"
     inkscape:window-maximized="0"
     inkscape:current-layer="svg3303" />
  <g
     transform="translate(6,13)"
     id="g3307">
    <path
       d="m 20,0 81,0 q 8.28427,0 14.14214,5.8578644 Q 121,11.715729 121,20 121,28.284271 115.14214,34.142136 109.28427,40 101,40 L 20,40 Q 11.715729,40 5.8578644,34.142136 0,28.284271 0,20 0,11.715729 5.8578644,5.8578644 11.715729,0 20,0 z"
       id="path3309"
       inkscape:connector-curvature="0"
       style="fill:#ffffff;stroke:#333333;stroke-width:2" />
    <g
       transform="translate(0,25)"
       id="g3311">
      <text
         x="60.5"
         style="text-anchor:middle"
         y="-2"
         id="text3313">
        <tspan
           xml:space="preserve"
           font-size="12"
           id="tspan3315"
           style="font-size:12px;fill:#000000;font-family:Arial">Початок </tspan>      </text>
    </g>
  </g>
  <g
     transform="translate(21.5,77)"
     id="g3317">
    <polygon
       points="105,0 75,70 -15,70 15,0 "
       id="polygon3319"
       style="fill:#ffffff;stroke:#333333;stroke-width:2" />
    <g
       transform="translate(0,32)"
       id="g3321">
      <text
         x="45"
         style="text-anchor:middle"
         y="-2"
         id="text3323">
        <tspan
           xml:space="preserve"
           font-size="12"
           id="tspan3325"
           style="font-size:12px;fill:#000000;font-family:Arial">Зчитування</tspan>      </text>
      <text
         x="45"
         style="text-anchor:middle"
         y="12.8"
         id="text3327">
        <tspan
           xml:space="preserve"
           font-size="12"
           id="tspan3329"
           style="font-size:12px;fill:#000000;font-family:Arial">зображення</tspan>      </text>
    </g>
  </g>
  <g
     transform="translate(21.5,187)"
     id="g3331">
    <polygon
       points="105,0 75,75 -15,75 15,0 "
       id="polygon3333"
       style="fill:#ffffff;stroke:#333333;stroke-width:2" />
    <g
       transform="translate(0,27.5)"
       id="g3335">
      <text
         x="45"
         style="text-anchor:middle"
         y="-2"
         id="text3337">
        <tspan
           xml:space="preserve"
           font-size="12"
           id="tspan3339"
           style="font-size:12px;fill:#000000;font-family:Arial">Зчитування</tspan>      </text>
      <text
         x="45"
         style="text-anchor:middle"
         y="12.8"
         id="text3341">
        <tspan
           xml:space="preserve"
           font-size="12"
           id="tspan3343"
           style="font-size:12px;fill:#000000;font-family:Arial">параметрів</tspan>      </text>
      <text
         x="45"
         style="text-anchor:middle"
         y="27.6"
         id="text3345">
        <tspan
           xml:space="preserve"
           font-size="12"
           id="tspan3347"
           style="font-size:12px;fill:#000000;font-family:Arial">PSF</tspan>      </text>
    </g>
  </g>
  <g
     transform="translate(16.5,287)"
     id="g3349">
    <rect
       width="100"
       height="75"
       id="rect3351"
       x="0"
       y="0"
       style="fill:#ffffff;stroke:#333333;stroke-width:2" />
    <line
       x1="10"
       y1="0"
       x2="10"
       y2="75"
       id="line3353"
       style="fill:#ffffff;stroke:#333333;stroke-width:2" />
    <line
       x1="90"
       y1="0"
       x2="90"
       y2="75"
       id="line3355"
       style="fill:#ffffff;stroke:#333333;stroke-width:2" />
    <g
       transform="translate(0,34.5)"
       id="g3357">
      <text
         x="50"
         style="text-anchor:middle"
         y="-2"
         id="text3359">
        <tspan
           xml:space="preserve"
           font-size="12"
           id="tspan3361"
           style="font-size:12px;fill:#000000;font-family:Arial">Перетворення</tspan>      </text>
      <text
         x="50"
         style="text-anchor:middle"
         y="12.8"
         id="text3363">
        <tspan
           xml:space="preserve"
           font-size="12"
           id="tspan3365"
           style="font-size:12px;fill:#000000;font-family:Arial">Фур’є</tspan>      </text>
    </g>
  </g>
  <g
     transform="translate(16.5,397)"
     id="g3367">
    <rect
       width="100"
       height="75"
       id="rect3369"
       x="0"
       y="0"
       style="fill:#ffffff;stroke:#333333;stroke-width:2" />
    <line
       x1="10"
       y1="0"
       x2="10"
       y2="75"
       id="line3371"
       style="fill:#ffffff;stroke:#333333;stroke-width:2" />
    <line
       x1="90"
       y1="0"
       x2="90"
       y2="75"
       id="line3373"
       style="fill:#ffffff;stroke:#333333;stroke-width:2" />
    <g
       transform="translate(0,42.5)"
       id="g3375">
      <text
         x="50"
         style="text-anchor:middle"
         y="-2"
         id="text3377">
        <tspan
           xml:space="preserve"
           font-size="12"
           id="tspan3379"
           style="font-size:12px;fill:#000000;font-family:Arial">Фільтр Вінера</tspan>      </text>
    </g>
  </g>
  <g
     transform="translate(235,77)"
     id="g3381">
    <rect
       width="120"
       height="75"
       id="rect3383"
       x="0"
       y="0"
       style="fill:#ffffff;stroke:#333333;stroke-width:2" />
    <line
       x1="10"
       y1="0"
       x2="10"
       y2="75"
       id="line3385"
       style="fill:#ffffff;stroke:#333333;stroke-width:2" />
    <line
       x1="110"
       y1="0"
       x2="110"
       y2="75"
       id="line3387"
       style="fill:#ffffff;stroke:#333333;stroke-width:2" />
    <g
       transform="translate(0,27.5)"
       id="g3389">
      <text
         x="60"
         style="text-anchor:middle"
         y="-2"
         id="text3391">
        <tspan
           xml:space="preserve"
           font-size="12"
           id="tspan3393"
           style="font-size:12px;fill:#000000;font-family:Arial">Обернене</tspan>      </text>
      <text
         x="60"
         style="text-anchor:middle"
         y="12.8"
         id="text3395">
        <tspan
           xml:space="preserve"
           font-size="12"
           id="tspan3397"
           style="font-size:12px;fill:#000000;font-family:Arial">перетворення</tspan>      </text>
      <text
         x="60"
         style="text-anchor:middle"
         y="27.6"
         id="text3399">
        <tspan
           xml:space="preserve"
           font-size="12"
           id="tspan3401"
           style="font-size:12px;fill:#000000;font-family:Arial">Фур’є</tspan>      </text>
    </g>
  </g>
  <g
     transform="translate(235,174.5)"
     id="g3403">
    <polygon
       points="120,50 60,100 0,50 60,0 "
       id="polygon3405"
       style="fill:#ffffff;stroke:#333333;stroke-width:2" />
    <g
       transform="translate(0,55)"
       id="g3407">
      <text
         x="60"
         style="text-anchor:middle"
         y="-2"
         id="text3409">
        <tspan
           xml:space="preserve"
           font-size="12"
           id="tspan3411"
           style="font-size:12px;fill:#000000;font-family:Arial">Якість задовільна?</tspan>      </text>
    </g>
  </g>
  <g
     transform="translate(245,317)"
     id="g3413">
    <polygon
       points="105,0 75,90 -15,90 15,0 "
       id="polygon3415"
       style="fill:#ffffff;stroke:#333333;stroke-width:2" />
    <g
       transform="translate(0,35)"
       id="g3417">
      <text
         x="45"
         style="text-anchor:middle"
         y="-2"
         id="text3419">
        <tspan
           xml:space="preserve"
           font-size="12"
           id="tspan3421"
           style="font-size:12px;fill:#000000;font-family:Arial">Запис</tspan>      </text>
      <text
         x="45"
         style="text-anchor:middle"
         y="12.8"
         id="text3423">
        <tspan
           xml:space="preserve"
           font-size="12"
           id="tspan3425"
           style="font-size:12px;fill:#000000;font-family:Arial">відновленого</tspan>      </text>
      <text
         x="45"
         style="text-anchor:middle"
         y="27.6"
         id="text3427">
        <tspan
           xml:space="preserve"
           font-size="12"
           id="tspan3429"
           style="font-size:12px;fill:#000000;font-family:Arial">зображення</tspan>      </text>
    </g>
  </g>
  <g
     transform="translate(235,472)"
     id="g3431">
    <path
       d="m 22.5,0 75,0 q 9.31981,0 15.9099,6.5900974 Q 120,13.180195 120,22.5 120,31.819805 113.4099,38.409903 106.81981,45 97.5,45 l -75,0 Q 13.180195,45 6.5900974,38.409903 0,31.819805 0,22.5 0,13.180195 6.5900974,6.5900974 13.180195,0 22.5,0 z"
       id="path3433"
       inkscape:connector-curvature="0"
       style="fill:#ffffff;stroke:#333333;stroke-width:2" />
    <g
       transform="translate(0,27.5)"
       id="g3435">
      <text
         x="60"
         style="text-anchor:middle"
         y="-2"
         id="text3437">
        <tspan
           xml:space="preserve"
           font-size="12"
           id="tspan3439"
           style="font-size:12px;fill:#000000;font-family:Arial">Кінець</tspan>      </text>
    </g>
  </g>
  <g
     transform="translate(66.5,53)"
     id="g3441">
    <path
       d="m 0,0 0,4 q 0,4 0,8 l 0,0 q 0,4 0,8 l 0,1"
       id="path3443"
       inkscape:connector-curvature="0"
       style="fill:none;stroke:#000000;stroke-width:2;stroke-dasharray:23, 0" />
    <g
       transform="matrix(0,-1,1,0,0,24)"
       id="g3445">
      <path
         d="M 9,-5 2,0 9,5 M 0,0 z"
         id="path3447"
         inkscape:connector-curvature="0"
         style="fill:none;stroke:#000000;stroke-width:2" />
    </g>
    <g
       transform="translate(0,4)"
       id="g3449" />
  </g>
  <g
     transform="translate(66.5,147)"
     id="g3451">
    <path
       d="M 0,0 0,6.75 Q 0,13.5 0,20 l 0,0 q 0,6.5 0,13 l 0,4"
       id="path3453"
       inkscape:connector-curvature="0"
       style="fill:none;stroke:#000000;stroke-width:2;stroke-dasharray:23, 0" />
    <g
       transform="matrix(0,-1,1,0,0,40)"
       id="g3455">
      <path
         d="M 9,-5 2,0 9,5 M 0,0 z"
         id="path3457"
         inkscape:connector-curvature="0"
         style="fill:none;stroke:#000000;stroke-width:2" />
    </g>
    <g
       transform="translate(0,6.875)"
       id="g3459" />
  </g>
  <g
     transform="translate(66.5,262)"
     id="g3461">
    <path
       d="M 0,0 0,4.25 Q 0,8.5 0,12.5 l 0,0 q 0,4 0,8 L 0,22"
       id="path3463"
       inkscape:connector-curvature="0"
       style="fill:none;stroke:#000000;stroke-width:2;stroke-dasharray:23, 0" />
    <g
       transform="matrix(0,-1,1,0,0,25)"
       id="g3465">
      <path
         d="M 9,-5 2,0 9,5 M 0,0 z"
         id="path3467"
         inkscape:connector-curvature="0"
         style="fill:none;stroke:#000000;stroke-width:2" />
    </g>
    <g
       transform="translate(0,4.375)"
       id="g3469" />
  </g>
  <g
     transform="translate(66.5,362)"
     id="g3471">
    <path
       d="m 0,0 0,5.75 q 0,5.75 0,11.5 l 0,0.5 q 0,5.75 0,11.5 L 0,32"
       id="path3473"
       inkscape:connector-curvature="0"
       style="fill:none;stroke:#000000;stroke-width:2;stroke-dasharray:23, 0" />
    <g
       transform="matrix(0,-1,1,0,0,35)"
       id="g3475">
      <path
         d="M 9,-5 2,0 9,5 M 0,0 z"
         id="path3477"
         inkscape:connector-curvature="0"
         style="fill:none;stroke:#000000;stroke-width:2" />
    </g>
    <g
       transform="translate(0,6)"
       id="g3479" />
  </g>
  <g
     transform="translate(46.5,517)"
     id="g3481">
    <ellipse
       cx="20"
       cy="20"
       rx="20"
       ry="20"
       id="ellipse3483"
       d="M 40,20 C 40,31.045695 31.045695,40 20,40 8.954305,40 0,31.045695 0,20 0,8.954305 8.954305,0 20,0 31.045695,0 40,8.954305 40,20 z"
       sodipodi:cx="20"
       sodipodi:cy="20"
       sodipodi:rx="20"
       sodipodi:ry="20"
       style="fill:#ffffff;stroke:#333333;stroke-width:2" />
    <g
       transform="translate(0,25)"
       id="g3485">
      <text
         x="20"
         style="text-anchor:middle"
         y="-2"
         id="text3487">
        <tspan
           xml:space="preserve"
           font-size="12"
           id="tspan3489"
           style="font-size:12px;fill:#000000;font-family:Arial">А</tspan>      </text>
    </g>
  </g>
  <g
     transform="translate(276.5,6)"
     id="g3491">
    <ellipse
       cx="20"
       cy="20"
       rx="20"
       ry="20"
       id="ellipse3493"
       d="M 40,20 C 40,31.045695 31.045695,40 20,40 8.954305,40 0,31.045695 0,20 0,8.954305 8.954305,0 20,0 31.045695,0 40,8.954305 40,20 z"
       sodipodi:cx="20"
       sodipodi:cy="20"
       sodipodi:rx="20"
       sodipodi:ry="20"
       style="fill:#ffffff;stroke:#333333;stroke-width:2" />
    <g
       transform="translate(0,25)"
       id="g3495">
      <text
         x="20"
         style="text-anchor:middle"
         y="-2"
         id="text3497">
        <tspan
           xml:space="preserve"
           font-size="12"
           id="tspan3499"
           style="font-size:12px;fill:#000000;font-family:Arial">А</tspan>      </text>
    </g>
  </g>
  <g
     transform="translate(66.5,472)"
     id="g3501">
    <path
       d="m 0,0 0,7.5 q 0,7.5 0,15 l 0,0 q 0,7.5 0,15 L 0,42"
       id="path3503"
       inkscape:connector-curvature="0"
       style="fill:none;stroke:#000000;stroke-width:2;stroke-dasharray:23, 0" />
    <g
       transform="matrix(0,-1,1,0,0,45)"
       id="g3505">
      <path
         d="M 9,-5 2,0 9,5 M 0,0 z"
         id="path3507"
         inkscape:connector-curvature="0"
         style="fill:none;stroke:#000000;stroke-width:2" />
    </g>
    <g
       transform="translate(0,7.5)"
       id="g3509" />
  </g>
  <g
     transform="translate(296.5,46)"
     id="g3511">
    <path
       d="M 0,0 0,5.25 Q 0,10.5 0,15.5 l 0,0 q 0,5 0,10 L 0,28"
       id="path3513"
       inkscape:connector-curvature="0"
       style="fill:none;stroke:#000000;stroke-width:2;stroke-dasharray:23, 0" />
    <g
       transform="matrix(0,-1,1,0,0,31)"
       id="g3515">
      <path
         d="M 9,-5 2,0 9,5 M 0,0 z"
         id="path3517"
         inkscape:connector-curvature="0"
         style="fill:none;stroke:#000000;stroke-width:2" />
    </g>
    <g
       transform="translate(0,5.375)"
       id="g3519" />
  </g>
  <g
     transform="translate(295,152)"
     id="g3521">
    <path
       d="m 0,0 0,3.75 q 0,3.75 0,7.5 l 0,0 q 0,3.75 0,7.5 l 0,0.75"
       id="path3523"
       inkscape:connector-curvature="0"
       style="fill:none;stroke:#000000;stroke-width:2;stroke-dasharray:23, 0" />
    <g
       transform="matrix(0,-1,1,0,0,22.5)"
       id="g3525">
      <path
         d="M 9,-5 2,0 9,5 M 0,0 z"
         id="path3527"
         inkscape:connector-curvature="0"
         style="fill:none;stroke:#000000;stroke-width:2" />
    </g>
    <g
       transform="translate(0,3.75)"
       id="g3529" />
  </g>
  <g
     transform="translate(235,224.5)"
     id="g3531">
    <path
       d="m 0,0 -31,0 q -10,0 -20,0 l -21.5,0 q -10,0 -20,0 l -28,0"
       id="path3533"
       inkscape:connector-curvature="0"
       style="fill:none;stroke:#000000;stroke-width:2;stroke-dasharray:23, 0" />
    <g
       transform="translate(-123.5,0)"
       id="g3535">
      <path
         d="M 9,-5 2,0 9,5 M 0,0 z"
         id="path3537"
         inkscape:connector-curvature="0"
         style="fill:none;stroke:#000000;stroke-width:2" />
    </g>
    <g
       transform="translate(-41.75,0)"
       id="g3539" />
  </g>
  <g
     transform="translate(295,274.5)"
     id="g3541">
    <path
       d="M 0,0 0,7.25 Q 0,14.5 0,21.5 l 0,0 q 0,7 0,14 L 0,40"
       id="path3543"
       inkscape:connector-curvature="0"
       style="fill:none;stroke:#000000;stroke-width:2;stroke-dasharray:23, 0" />
    <g
       transform="matrix(0,-1,1,0,0,43)"
       id="g3545">
      <path
         d="M 9,-5 2,0 9,5 M 0,0 z"
         id="path3547"
         inkscape:connector-curvature="0"
         style="fill:none;stroke:#000000;stroke-width:2" />
    </g>
    <g
       transform="translate(0,7.375)"
       id="g3549" />
  </g>
  <g
     transform="translate(290,407)"
     id="g3551">
    <path
       d="m 0,0 0,11.5 q 0,10 0,20 l 0,2 q 0,10 0,20 L 0,62"
       id="path3553"
       inkscape:connector-curvature="0"
       style="fill:none;stroke:#000000;stroke-width:2;stroke-dasharray:23, 0" />
    <g
       transform="matrix(0,-1,1,0,0,65)"
       id="g3555">
      <path
         d="M 9,-5 2,0 9,5 M 0,0 z"
         id="path3557"
         inkscape:connector-curvature="0"
         style="fill:none;stroke:#000000;stroke-width:2" />
    </g>
    <g
       transform="translate(0,12.5)"
       id="g3559" />
  </g>
  <g
     transform="translate(118,203.5)"
     id="g3561">
    <g
       transform="translate(0,12.5)"
       id="g3563">
      <text
         x="75"
         style="text-anchor:middle"
         y="-2"
         id="text3565">
        <tspan
           xml:space="preserve"
           font-size="12"
           id="tspan3567"
           style="font-size:12px;fill:#000000;font-family:Arial">Ні</tspan>      </text>
    </g>
  </g>
  <g
     transform="translate(227,285.5)"
     id="g3569">
    <g
       transform="translate(0,12.5)"
       id="g3571">
      <text
         x="75"
         style="text-anchor:middle"
         y="-2"
         id="text3573">
        <tspan
           xml:space="preserve"
           font-size="12"
           id="tspan3575"
           style="font-size:12px;fill:#000000;font-family:Arial">Так</tspan>      </text>
    </g>
  </g>
</svg>
